<svg width="25" height="25" viewBox="0 0 25 25" fill="none" xmlns="http://www.w3.org/2000/svg">
<path d="M17.4792 22.7499C16.9708 22.9654 16.3977 22.9701 15.8859 22.7631C15.3741 22.556 14.9655 22.1541 14.75 21.6458C14.5345 21.1374 14.5298 20.5643 14.7369 20.0525C14.9439 19.5407 15.3458 19.1321 15.8542 18.9166C16.1059 18.8099 16.3761 18.7538 16.6495 18.7516C16.9229 18.7493 17.194 18.8009 17.4474 18.9034C17.7009 19.006 17.9316 19.1574 18.1265 19.3491C18.3214 19.5408 18.4766 19.7691 18.5833 20.0208C18.69 20.2725 18.7461 20.5427 18.7484 20.8161C18.7506 21.0895 18.699 21.3606 18.5965 21.614C18.494 21.8674 18.3425 22.0982 18.1508 22.2931C17.9591 22.488 17.7309 22.6432 17.4792 22.7499ZM7.9375 6.24992C9.09375 6.24992 10.0208 5.32284 10.0208 4.16659C10.0208 3.61405 9.80134 3.08415 9.41064 2.69345C9.01994 2.30275 8.49004 2.08325 7.9375 2.08325C6.77084 2.08325 5.85417 3.02075 5.85417 4.16659C5.85417 5.32284 6.77084 6.24992 7.9375 6.24992ZM22.9688 17.0208L18.9583 18.7499C19.1875 18.9791 19.3958 19.2708 19.5417 19.6041C19.6875 19.9478 19.75 20.3124 19.7917 20.6458L23.7813 18.9374L22.9688 17.0208ZM10.5833 9.14575L11.3542 11.0312C11.1042 10.9374 10.875 10.8124 10.6875 10.6874C10.0625 10.2812 9.60417 9.77075 9.30209 9.16659L8.53125 7.53117C8.33334 7.16659 8.09375 6.89575 7.76042 6.70825C7.45834 6.53117 7.13542 6.43742 6.80209 6.43742C6.46876 6.43742 6.15625 6.52075 5.85417 6.66659C4.39584 7.81242 4.03125 9.93742 4.03125 9.93742L3.67709 11.5728C3.58334 12.1145 3.53126 12.6562 3.53126 13.2083V18.3749L1.04167 21.7395L2.60417 22.9166L5.48959 19.0103L5.66667 15.6249L7.41667 18.0624V22.9166H9.34375V16.6041L7.41667 13.8853V13.2083C7.41667 12.7499 7.41667 12.302 7.53125 11.8645L7.89584 10.6145C8.29167 11.1874 8.77084 11.6874 9.34375 12.1145C9.8125 12.4687 11.125 13.0937 12.3646 13.3958L14.5833 18.5416C14.8125 18.3124 15.1042 18.1041 15.4479 17.9583C15.7813 17.8124 16.1458 17.7499 16.4792 17.7083L12.5 8.33325L10.5833 9.14575ZM16 12.6249L18.0417 17.4166L23.9063 14.9062L21.875 10.1249" fill="url(#paint0_linear_2_290)"/>
<defs>
<linearGradient id="paint0_linear_2_290" x1="12.474" y1="2.08325" x2="12.474" y2="22.9166" gradientUnits="userSpaceOnUse">
<stop stop-color="#CE9FFC"/>
<stop offset="0.505208" stop-color="#A582F7"/>
<stop offset="1" stop-color="#7367F0"/>
</linearGradient>
</defs>
</svg>
