<svg width="25" height="25" viewBox="0 0 25 25" fill="none" xmlns="http://www.w3.org/2000/svg">
<path d="M12.5 2.08325C6.75 2.08325 2.08333 6.74992 2.08333 12.4999C2.08333 18.2499 6.75 22.9166 12.5 22.9166C18.25 22.9166 22.9167 18.2499 22.9167 12.4999C22.9167 6.74992 18.25 2.08325 12.5 2.08325ZM12.5 5.20825C14.2292 5.20825 15.625 6.60409 15.625 8.33325C15.625 10.0624 14.2292 11.4583 12.5 11.4583C10.7708 11.4583 9.375 10.0624 9.375 8.33325C9.375 6.60409 10.7708 5.20825 12.5 5.20825ZM12.5 19.9999C11.2624 19.9999 10.0439 19.6936 8.95341 19.1084C7.86288 18.5231 6.93414 17.6771 6.25 16.6458C6.28125 14.5728 10.4167 13.4374 12.5 13.4374C14.5729 13.4374 18.7187 14.5728 18.75 16.6458C18.0659 17.6771 17.1371 18.5231 16.0466 19.1084C14.9561 19.6936 13.7376 19.9999 12.5 19.9999Z" fill="url(#paint0_linear_2_283)"/>
<defs>
<linearGradient id="paint0_linear_2_283" x1="12.5" y1="2.08325" x2="12.5" y2="22.9166" gradientUnits="userSpaceOnUse">
<stop stop-color="#CE9FFC"/>
<stop offset="0.505208" stop-color="#A582F7"/>
<stop offset="1" stop-color="#7367F0"/>
</linearGradient>
</defs>
</svg>
