<svg width="263" height="264" viewBox="0 0 263 264" fill="none" xmlns="http://www.w3.org/2000/svg">
<g clip-path="url(#clip0_2_85)">
<path fill-rule="evenodd" clip-rule="evenodd" d="M152.244 167.649C175.875 163.446 199.988 154.978 217.68 138.782C224.118 132.889 228.859 125.904 233.776 118.796C234.121 118.298 233.997 117.611 233.497 117.263C232.995 116.917 232.308 117.041 231.962 117.543C227.139 124.513 222.505 131.376 216.192 137.155C198.75 153.122 174.946 161.403 151.651 165.517L151.559 165.163C150.569 161.325 146.494 157.817 140.975 155.127C133.063 151.269 122.231 148.981 114.332 149.243C110.783 149.361 107.808 150.009 105.87 151.192C104.36 152.114 103.427 153.361 103.172 154.908C102.629 158.205 105.078 161.14 109.377 163.383C118.365 168.075 135.405 170.108 142.962 169.095C145.321 168.778 147.695 168.423 150.074 168.023C150.267 168.694 150.453 169.351 150.605 169.998C151.032 171.843 151.18 173.636 150.308 175.64C148.947 178.762 146.297 181.225 143.152 183.203C138.243 186.286 132.118 188.17 127.43 189.333C101.322 195.806 79.7415 188.153 62.5073 176.942C45.1043 165.617 32.0998 150.669 23.3063 142.746C22.8548 142.337 22.1584 142.376 21.75 142.828C21.3415 143.279 21.3781 143.977 21.8319 144.384C30.6815 152.359 43.786 167.39 61.3067 178.789C78.9963 190.301 101.159 198.118 127.96 191.475C132.844 190.264 139.213 188.281 144.325 185.07C147.863 182.846 150.798 180.033 152.33 176.52C153.703 173.366 153.082 170.648 152.244 167.649ZM149.469 165.889L149.425 165.713C148.56 162.358 144.835 159.462 140.009 157.11C132.406 153.403 121.999 151.195 114.405 151.448C111.801 151.533 109.54 151.905 107.872 152.633C106.496 153.236 105.545 154.064 105.349 155.266C105.159 156.401 105.553 157.441 106.333 158.397C107.247 159.521 108.66 160.522 110.395 161.429C119.032 165.937 135.407 167.884 142.668 166.91C144.923 166.605 147.192 166.267 149.469 165.889Z" fill="white"/>
<path fill-rule="evenodd" clip-rule="evenodd" d="M233.838 114.384C234.058 114.813 234.177 115.479 234.296 116.197C234.581 117.907 234.649 119.916 234.72 120.861C234.767 121.47 235.298 121.922 235.904 121.877C236.512 121.831 236.967 121.302 236.92 120.693C236.832 119.535 236.737 116.858 236.294 114.928C236.056 113.893 235.691 113.053 235.254 112.588C234.511 111.796 233.42 111.8 232.118 112.89C230.577 114.18 228.288 117.291 225.091 118.29C224.511 118.47 224.186 119.092 224.369 119.67C224.55 120.253 225.169 120.577 225.751 120.395C228.798 119.441 231.168 116.845 232.851 115.207C233.171 114.897 233.588 114.572 233.838 114.384Z" fill="white"/>
</g>
<defs>
<clipPath id="clip0_2_85">
<rect width="187" height="187" fill="white" transform="translate(0 117) rotate(-38.5384)"/>
</clipPath>
</defs>
</svg>
