<svg width="107" height="35" viewBox="0 0 107 35" fill="none" xmlns="http://www.w3.org/2000/svg">
<path d="M26.3829 10.8852C26.1564 10.6651 25.8387 10.5651 25.5277 10.6163C25.2162 10.6672 24.9472 10.8628 24.8027 11.1434C24.3057 12.1089 23.6745 12.9961 22.9318 13.7805C23.0058 13.2139 23.0431 12.6439 23.0431 12.0724C23.0431 10.9759 22.8961 9.84742 22.6061 8.71805C21.6527 5.00853 19.1525 1.87144 15.7468 0.111205C15.4503 -0.0419942 15.097 -0.0366153 14.8053 0.125549C14.5136 0.287779 14.3226 0.585213 14.2964 0.917908C14.0309 4.28895 12.2945 7.35586 9.52981 9.33424C9.49322 9.3606 9.4569 9.38729 9.42057 9.41386C9.34534 9.46891 9.27441 9.52097 9.20814 9.56467C9.19778 9.57157 9.18749 9.57861 9.17739 9.58585C7.43861 10.8308 6.00391 12.4903 5.0282 14.3854C4.03675 16.3131 3.53406 18.3818 3.53406 20.5336C3.53406 21.6299 3.68101 22.7583 3.97088 23.8879C5.50055 29.8417 10.8585 33.9999 17.0004 33.9999C24.4253 33.9999 30.4659 27.9589 30.4659 20.5336C30.4659 16.872 29.0159 13.4454 26.3829 10.8852Z" fill="url(#paint0_linear_2_1002)"/>
<circle cx="16" cy="20" r="4" fill="white"/>
<path d="M46.5864 28.1301C47.6223 28.1301 48.5387 27.9408 49.3356 27.5623C50.1324 27.1639 50.7401 26.5662 51.1584 25.7693V27.7715H55.342V11.4555H50.8596V20.9881C50.8596 21.9244 50.5807 22.6815 50.0229 23.2592C49.4651 23.817 48.7479 24.0959 47.8713 24.0959C46.9948 24.0959 46.2776 23.817 45.7198 23.2592C45.1619 22.6815 44.883 21.9244 44.883 20.9881V11.4555H40.4006V21.3467C40.4006 23.3787 40.9286 25.0223 41.9844 26.2773C43.0602 27.5125 44.5942 28.1301 46.5864 28.1301Z" fill="white"/>
<path d="M58.6181 9.99127H63.1005V5.50886H58.6181V9.99127ZM58.6181 27.7715H63.1005V11.4555H58.6181V27.7715Z" fill="white"/>
<path d="M68.3529 27.7715H72.8353V15.3403H76.3316V11.4555H72.8353V11.2165C72.8353 9.76217 73.682 9.03502 75.3753 9.03502C75.6542 9.03502 75.9829 9.0649 76.3614 9.12467V5.29968C75.9032 5.20007 75.3753 5.15027 74.7777 5.15027C72.7456 5.15027 71.1618 5.6782 70.0263 6.73405C68.9107 7.78991 68.3529 9.28404 68.3529 11.2165V11.4555H65.6037V15.3403H68.3529V27.7715Z" fill="white"/>
<path d="M78.6372 27.7715H83.1196V18.986C83.1196 17.7707 83.4583 16.8344 84.1356 16.177C84.813 15.4996 85.6995 15.161 86.7952 15.161H88.1997V11.2762H87.2434C86.2473 11.2762 85.3608 11.4655 84.5838 11.844C83.8268 12.2026 83.2391 12.8899 82.8208 13.9059V11.4555H78.6372V27.7715Z" fill="white"/>
<path d="M92.7042 34.4054C95.6925 34.4054 97.854 32.7021 99.1888 29.2955L106.181 11.4555H101.37L97.5154 21.9443L93.6605 11.4555H88.8494L95.2742 27.7715L94.9753 28.4588C94.7363 28.9967 94.4275 29.4748 94.049 29.8932C93.6704 30.3115 93.0429 30.5207 92.1664 30.5207C91.4492 30.5207 90.7718 30.4211 90.1343 30.2219V33.8974C90.473 34.0767 90.8615 34.2062 91.2998 34.2859C91.758 34.3656 92.2261 34.4054 92.7042 34.4054Z" fill="white"/>
<defs>
<linearGradient id="paint0_linear_2_1002" x1="17" y1="0" x2="17" y2="33.9999" gradientUnits="userSpaceOnUse">
<stop stop-color="#CE9FFC"/>
<stop offset="0.505208" stop-color="#A582F7"/>
<stop offset="1" stop-color="#7367F0"/>
</linearGradient>
</defs>
</svg>
