<svg width="240" height="49" viewBox="0 0 240 49" fill="none" xmlns="http://www.w3.org/2000/svg">
<g clip-path="url(#clip0_2_51)">
<path d="M90.7076 18.7223L90.1884 33.57L84.7744 33.3812L85.2936 18.5335L79.8178 18.3426L79.9831 13.6155L96.3334 14.1856L96.168 18.9127L90.7076 18.7223Z" fill="white"/>
<path d="M108.509 28.297L99.908 27.9971C100.021 29.6304 100.94 30.3762 102.317 30.4242C103.601 30.469 104.678 30.2272 106.143 29.5179L107.948 32.8085C106.101 33.8148 104.208 34.354 101.919 34.2742C97.5102 34.1205 95.1911 30.9051 95.3488 26.395C95.5261 21.3269 98.4628 18.8379 102.314 18.9722C106.336 19.1124 108.75 21.8501 108.559 27.3056C108.544 27.7395 108.533 28.0495 108.509 28.297ZM102.045 22.7025C100.9 22.6626 100.238 23.4309 100.018 24.8663L104.21 25.0125C103.999 23.5155 103.53 22.7543 102.045 22.7025Z" fill="white"/>
<path d="M117.634 34.8373C113.334 34.6874 110.862 31.8546 111.035 26.9105C111.193 22.4004 113.591 19.3805 118.277 19.544C121.046 19.6405 122.579 20.9819 123.791 23.088L120.234 25.6019C119.583 24.2913 119.125 23.6546 118.042 23.6169C116.758 23.5721 116.064 24.8358 115.982 27.1606C115.901 29.4854 116.555 30.7031 117.932 30.7511C118.876 30.784 119.575 30.2807 120.536 28.9332L123.635 31.5396C121.845 33.991 120.233 34.9279 117.634 34.8373Z" fill="white"/>
<path d="M134.769 35.1246L135.06 26.7864C135.127 24.88 134.51 24.362 133.474 24.3258C132.406 24.2886 131.755 24.7624 131.69 26.6223L131.397 35.007L126.369 34.8317L127.012 16.4504L132.11 14.6108L131.876 21.3062C132.828 20.6412 133.87 20.0878 135.602 20.1482C138.82 20.2604 140.276 22.4681 140.141 26.3273L139.827 35.301L134.769 35.1246Z" fill="white"/>
<path d="M151.835 36.0301C146.034 35.8278 143.076 31.4108 143.278 25.6298C143.498 19.3374 147.313 15.6686 152.556 15.8514C157.352 16.0186 159.182 18.1618 160.398 21.8974L155.428 23.6327C154.796 21.7951 154.17 20.625 152.376 20.5625C150.118 20.4837 149.064 22.7125 148.956 25.8123C148.851 28.8035 149.712 31.2077 152.063 31.2897C153.764 31.349 154.524 30.4444 155.64 28.6368L160.134 31.2297C158.744 33.7727 156.476 36.1919 151.835 36.0301Z" fill="white"/>
<path d="M172.646 27.2902C172.036 26.5706 171.328 26.0183 170.353 25.9843C169.131 25.9417 168.353 26.5042 168.29 28.2866L168.011 36.2838L162.983 36.1086L163.497 21.4314L168.524 21.6067L168.487 22.6761C169.382 21.8693 170.375 21.3764 171.659 21.4211C172.726 21.4584 173.429 21.7311 174.004 22.1236L172.646 27.2902Z" fill="white"/>
<path d="M184.268 36.8506L184.302 35.8742C183.381 36.5404 182.308 37.0927 180.607 37.0333C177.389 36.9211 175.933 34.7134 176.068 30.8543L176.382 21.8806L181.44 22.057L181.149 30.3952C181.082 32.3015 181.699 32.8196 182.735 32.8557C183.772 32.8919 184.423 32.418 184.488 30.5582L184.781 22.1735L189.84 22.3498L189.326 37.027L184.268 36.8506Z" fill="white"/>
<path d="M201.345 37.4459L201.637 29.1076C201.704 27.2013 201.087 26.6832 200.05 26.6471C198.983 26.6099 198.332 27.0837 198.266 28.9435L197.973 37.3283L192.946 37.153L193.459 22.4758L198.487 22.6511L198.452 23.6275C199.405 22.9625 200.446 22.4091 202.179 22.4695C205.396 22.5817 206.852 24.7894 206.717 28.6486L206.404 37.6223L201.345 37.4459Z" fill="white"/>
<path d="M216.184 38.2736C211.884 38.1237 209.412 35.2909 209.585 30.3469C209.743 25.8368 212.141 22.8169 216.828 22.9803C219.597 23.0768 221.129 24.4182 222.341 26.5243L218.784 29.0383C218.133 27.7276 217.675 27.091 216.592 27.0532C215.308 27.0084 214.614 28.2722 214.532 30.5969C214.451 32.9217 215.105 34.1394 216.482 34.1874C217.426 34.2203 218.125 33.7171 219.086 32.3695L222.185 34.9759C220.396 37.4274 218.783 38.3643 216.184 38.2736Z" fill="white"/>
<path d="M233.319 38.5609L233.611 30.2227C233.677 28.3164 233.06 27.7983 232.024 27.7621C230.957 27.7249 230.305 28.1988 230.24 30.0586L229.947 38.4434L224.919 38.2681L225.562 19.8867L230.66 18.0472L230.426 24.7426C231.378 24.0775 232.42 23.5242 234.152 23.5846C237.37 23.6968 238.826 25.9045 238.691 29.7636L238.377 38.7373L233.319 38.5609Z" fill="white"/>
<path d="M1.9126 2.49847L1.52125 13.6885L12.6895 14.0779L11.9074 36.4424L23.0602 36.8313L23.8424 14.4668L35.0107 14.8562L35.402 3.66621L1.9126 2.49847Z" fill="white"/>
<path d="M45.7727 26.4197L46.1635 15.2452L35.0107 14.8562L34.2285 37.2208L67.7025 38.388L68.0938 27.198L45.7727 26.4197Z" fill="white"/>
<path d="M68.876 4.83341L46.5548 4.0551L46.1635 15.2452L68.4846 16.0234L68.876 4.83341Z" fill="white"/>
</g>
<defs>
<clipPath id="clip0_2_51">
<rect width="238" height="40" fill="white" transform="matrix(0.999393 0.0348477 -0.0349514 0.999389 2 0)"/>
</clipPath>
</defs>
</svg>
