<svg width="182" height="47" viewBox="0 0 182 47" fill="none" xmlns="http://www.w3.org/2000/svg">
<g clip-path="url(#clip0_2_53)">
<path d="M161.99 37.513L168.489 37.7396C168.713 38.5679 169.542 39.4172 171.149 39.4733C173.325 39.5491 174.121 38.2239 174.191 36.2255L174.241 34.8023L174.097 34.7972C172.98 36.0106 171.521 36.8809 169.417 36.8075C165.273 36.6631 161.778 33.4753 161.987 27.4874C162.179 22.0028 165.29 17.829 169.758 17.9848C172.33 18.0745 173.865 19.1644 174.845 20.8395L174.953 20.8433L175.026 18.7443L181.454 18.9684L180.873 35.5661C180.766 38.6283 179.609 40.9774 177.952 42.3518C176.221 43.7884 173.808 44.3088 171.091 44.2141C165.982 44.036 162.489 41.8054 161.99 37.513ZM174.781 27.6097C174.865 25.2232 173.794 23.257 171.826 23.1884C169.931 23.1224 168.661 24.791 168.57 27.3931C168.48 29.9593 169.633 31.8492 171.521 31.915C173.481 31.9905 174.693 30.14 174.781 27.6097ZM155.017 21.3212L155.125 21.325C156.609 18.6995 158.467 17.7711 160.787 17.852C161.321 17.8706 161.678 17.955 161.891 18.0704L161.685 23.9504L161.541 23.9453C157.603 23.0955 155.216 24.9051 155.066 29.2109L154.785 37.2258L148.034 36.9904L148.704 17.8265L155.131 18.0506L155.017 21.3212ZM1.82526 4.99695L15.0405 5.45775C17.5409 5.54494 19.4437 6.21584 20.7669 7.37031C22.2582 8.6674 23.0148 10.5506 22.9376 12.7574C22.8479 15.3236 21.7542 16.8904 19.5792 17.815L19.5754 17.9228C22.3316 18.9473 23.8512 21.4977 23.7454 24.5239C23.6446 27.4064 22.4562 29.6177 20.5931 30.9057C19.0196 31.9592 17.005 32.4215 14.3605 32.3293L0.8858 31.8595L1.82526 4.99695ZM13.6679 26.346C15.2748 26.4021 16.483 25.4798 16.5454 23.6971C16.6102 21.8425 15.3588 20.9065 13.824 20.853L8.60702 20.671L8.41521 26.1557L13.6682 26.3389L13.6679 26.346ZM13.3472 15.9208C14.7739 15.9705 15.8389 15.2232 15.8937 13.6561C15.9473 12.125 14.8997 11.34 13.473 11.2903L8.94062 11.1322L8.77873 15.7615L13.3472 15.9208Z" fill="white"/>
<path d="M25.6113 5.82634L32.536 6.0678L31.5965 32.9303L24.6718 32.6889L25.6113 5.82634ZM33.2565 23.4234C33.4682 17.3708 37.5386 13.4105 43.613 13.6223C49.6874 13.8341 53.3992 18.0658 53.1875 24.1183C52.9743 30.214 48.9775 34.1337 42.903 33.9219C36.8284 33.7173 33.0433 29.519 33.2565 23.4234ZM46.3276 23.8791C46.4448 20.5294 45.4445 18.393 43.3765 18.3209C41.3085 18.2488 40.2335 20.3128 40.1163 23.6626C39.9979 27.0482 40.9261 29.1821 42.9941 29.2542C45.0619 29.3335 46.2092 27.2648 46.3276 23.8791ZM53.9729 24.1457C54.1846 18.0932 58.255 14.1328 64.3294 14.3446C70.4038 14.5564 74.1156 18.7882 73.9039 24.8407C73.6907 30.9363 69.6939 34.8561 63.6195 34.6443C57.5448 34.4397 53.7597 30.2414 53.9729 24.1457ZM67.0441 24.6015C67.1612 21.2518 66.161 19.1154 64.0929 19.0432C62.0249 18.9711 60.9499 21.0352 60.8327 24.3849C60.7143 27.7706 61.6425 29.9045 63.7106 29.9766C65.7783 30.0559 66.9257 27.9872 67.0441 24.6015ZM75.5587 15.276L81.9862 15.5001L81.8853 18.3826L81.9934 18.3863C83.3545 16.1883 85.148 15.0346 87.9005 15.1306C90.3289 15.2152 92.1097 16.4864 92.9656 18.625L93.0736 18.6288C94.733 16.1533 96.7996 15.4409 99.1559 15.523C103.623 15.6788 105.433 19.0237 105.278 23.4373L104.857 35.4776L98.1055 35.2422L98.4841 24.4167C98.5527 22.4543 97.9922 21.1537 96.2772 21.0939C94.5983 21.0354 93.686 22.5725 93.6136 24.6427L93.2486 35.0801L86.4896 34.8444L86.8685 24.0117C86.9371 22.0493 86.3766 20.7487 84.6616 20.6889C82.9827 20.6303 82.0704 22.1675 81.998 24.2377L81.633 34.675L74.8884 34.4399L75.5587 15.276ZM113.188 33.2779L113.116 33.2754L113.028 35.7698L106.601 35.5456L107.54 8.68311L114.292 8.91854L113.953 18.6083L114.061 18.6121C115.402 16.9819 117.149 16.1504 119.613 16.2363C124.433 16.4044 127.07 20.8505 126.868 26.6155C126.64 33.1353 123.476 36.7674 118.475 36.593C116.4 36.5279 114.295 35.4541 113.188 33.2779ZM120.011 26.3116C120.119 23.2135 119.051 21.1755 117.011 21.1044C114.943 21.0323 113.548 22.9844 113.439 26.0825C113.332 29.1447 114.58 31.225 116.655 31.2973C118.723 31.3622 119.902 29.4098 120.011 26.3116ZM127.726 26.6526C127.935 20.6648 132.044 16.641 137.794 16.8415C140.647 16.941 142.836 17.9097 144.458 19.5712C146.596 21.7833 147.48 25.1679 147.27 29.119L134.379 28.6695C134.584 31.066 135.68 32.3205 137.719 32.3917C138.901 32.4329 139.95 31.9369 140.427 30.6652L146.927 30.8919C145.635 35.2298 142.164 37.3255 137.343 37.1574C131.37 36.9419 127.511 32.777 127.726 26.6526ZM134.511 24.8885L140.651 25.1025C140.623 22.7841 139.383 21.5246 137.776 21.4686C135.917 21.4037 134.833 22.6902 134.511 24.8885Z" fill="white"/>
</g>
<defs>
<clipPath id="clip0_2_53">
<rect width="180" height="40" fill="white" transform="matrix(0.999393 0.0348477 -0.0349514 0.999389 2 0)"/>
</clipPath>
</defs>
</svg>
