<svg width="167" height="46" viewBox="0 0 167 46" fill="none" xmlns="http://www.w3.org/2000/svg">
<g clip-path="url(#clip0_2_55)">
<path d="M28.0022 29.326L28.6341 11.2568C28.667 10.3167 28.8999 9.61899 29.3589 9.16441C29.7919 8.70893 30.3728 8.49389 31.0496 8.51749C31.7524 8.542 32.3169 8.79697 32.717 9.28151C33.1431 9.76695 33.3267 10.4792 33.2938 11.4192L32.6619 29.4885C32.629 30.4285 32.3952 31.1524 31.9362 31.607C31.4772 32.0615 30.9224 32.2775 30.2195 32.253C29.5427 32.2294 29.0042 31.9753 28.6042 31.4908C28.179 30.9792 27.9693 30.266 28.0022 29.326Z" fill="white"/>
<path d="M153.871 36.5384C147.363 36.3115 142.239 30.7996 142.467 24.2716C142.696 17.7437 148.192 12.6021 154.7 12.8291C161.208 13.056 166.332 18.5679 166.104 25.0958C165.875 31.6499 160.405 36.7663 153.871 36.5384ZM154.532 17.6336C150.653 17.4983 147.393 20.548 147.257 24.4387C147.121 28.3293 150.16 31.5986 154.039 31.7339C157.918 31.8691 161.178 28.8194 161.314 24.9288C161.449 21.0643 158.411 17.7688 154.532 17.6336Z" fill="white"/>
<path d="M100.844 34.6894C94.3365 34.4625 89.2123 28.9506 89.4406 22.4227C89.6689 15.8948 95.1656 10.7531 101.674 10.9801C108.182 11.207 113.306 16.7189 113.077 23.2469C112.848 29.8009 107.352 34.9164 100.844 34.6894ZM101.506 15.7846C97.6268 15.6494 94.3665 18.699 94.2304 22.5897C94.0944 26.4803 97.1337 29.7497 101.012 29.8849C104.891 30.0201 108.151 26.9705 108.288 23.0798C108.423 19.2153 105.384 15.9199 101.506 15.7846Z" fill="white"/>
<path d="M138.693 24.14C138.784 21.5289 138.01 19.0705 136.647 17.0622C134.664 14.1434 131.397 12.1472 127.627 11.885C127.497 11.8805 127.393 11.8769 127.263 11.8723L121.327 11.6654C120.312 11.63 119.575 11.8396 119.116 12.2941C118.657 12.7487 118.397 13.4717 118.361 14.5161L117.737 32.3504C117.701 33.3949 117.909 34.1342 118.335 34.6196C118.761 35.1051 119.508 35.3664 120.497 35.4009L126.433 35.6078C126.563 35.6124 126.667 35.616 126.797 35.6205C130.575 35.6477 133.947 33.8829 136.156 31.0842C137.657 29.1496 138.601 26.7512 138.693 24.14ZM127.462 30.7549C126.889 30.761 126.263 30.7654 125.612 30.7427L122.515 30.6347L123.008 16.5344L126.105 16.6424C126.756 16.6651 127.381 16.6869 127.952 16.7591C130 17.0658 131.73 18.2764 132.793 19.9344C133.535 21.0844 133.955 22.4846 133.903 23.973C133.851 25.4614 133.335 26.8028 132.514 27.8984C131.337 29.5305 129.527 30.5916 127.462 30.7549Z" fill="white"/>
<path d="M83.1613 10.4391C82.3114 10.148 81.3624 10.4548 80.8413 11.1948L73.3278 21.8346L66.576 10.6974C66.1078 9.92287 65.1826 9.55075 64.3144 9.78191C63.4462 10.0131 62.8183 10.8278 62.7863 11.7417L62.1096 31.0904C62.0694 32.2393 62.9468 33.2372 64.0922 33.2772C65.2115 33.3162 66.1815 32.4088 66.2226 31.2338L66.6582 18.7786L71.4381 26.6837C71.4381 26.6837 71.4381 26.6837 71.4371 26.7098C71.4371 26.7098 71.4362 26.7359 71.4623 26.7368C71.4865 26.79 71.5107 26.8431 71.5618 26.871C71.5869 26.898 71.5869 26.898 71.6121 26.9251C71.6372 26.9521 71.6614 27.0052 71.6865 27.0322C71.7116 27.0593 71.7367 27.0863 71.7619 27.1133C71.787 27.1403 71.813 27.1412 71.8121 27.1673C71.8633 27.1953 71.8884 27.2223 71.9386 27.2763L71.9637 27.3033C72.0149 27.3313 72.066 27.3592 72.0911 27.3862C72.1172 27.3871 72.1163 27.4132 72.1163 27.4132C72.1414 27.4402 72.1934 27.4421 72.2186 27.4691C72.4232 27.5808 72.6296 27.6403 72.863 27.6746C72.915 27.6764 72.9411 27.6773 72.9931 27.6791C73.0192 27.68 73.0452 27.6809 73.0712 27.6818C73.0972 27.6827 73.1233 27.6836 73.1493 27.6845C73.2014 27.6864 73.2274 27.6873 73.2795 27.6891C73.4886 27.6702 73.7247 27.6262 73.9367 27.529C73.9636 27.5038 74.0157 27.5056 74.0426 27.4804L74.0695 27.4552C74.1225 27.4309 74.1755 27.4066 74.2025 27.3814C74.2285 27.3823 74.2294 27.3562 74.2294 27.3562C74.2824 27.3319 74.3093 27.3067 74.3632 27.2563C74.3901 27.2311 74.4162 27.232 74.4171 27.2059C74.444 27.1807 74.471 27.1555 74.4979 27.1303C74.5249 27.1051 74.5518 27.0799 74.5797 27.0285C74.6066 27.0033 74.6066 27.0033 74.6336 26.9781C74.6614 26.9268 74.7144 26.9025 74.7423 26.8512L74.7692 26.826C74.7692 26.826 74.7692 26.826 74.7701 26.7999L80.0906 19.2469L79.655 31.7022C79.6148 32.8511 80.4921 33.849 81.6375 33.8889C82.7569 33.928 83.7269 33.0206 83.768 31.8456L84.4446 12.4969C84.5807 11.5866 84.0112 10.7302 83.1613 10.4391Z" fill="white"/>
<path d="M55.0793 32.3878L39.7466 31.8532C38.9396 31.825 38.0719 31.298 37.7609 30.5029C37.4499 29.7077 37.4352 28.6353 38.1682 27.7982L51.1999 13.6384L40.8393 13.2771C39.72 13.2381 38.8175 12.2131 38.8595 11.012C38.9015 9.81088 39.8391 9.08541 40.9845 9.12535L54.9375 9.61187C55.7445 9.64001 56.5729 9.79961 57.2735 10.6345C57.9248 11.3892 57.817 12.9802 57.0553 13.8948L44.4556 27.6252L55.2327 28.001C56.3781 28.041 57.1504 29.0614 57.1084 30.2625C57.0663 31.4636 56.2247 32.4277 55.0793 32.3878Z" fill="white"/>
<path d="M12.649 31.6142C9.23881 31.4953 6.21456 30.0303 4.0877 27.4987C2.23624 25.2904 1.21641 22.4052 1.31504 19.5851C1.62278 10.7855 9.02672 7.74958 13.6343 7.91024C18.1639 8.06818 21.3923 10.4029 21.5448 10.5128C22.5354 11.2533 22.7733 12.6472 22.0339 13.6671C21.3206 14.688 19.9318 14.901 18.9403 14.1867C18.8891 14.1588 16.5741 12.5356 13.4764 12.4276C10.5868 12.3268 6.53732 14.0941 6.33916 19.7603C6.22683 22.972 8.48843 26.8678 12.8618 27.0203C15.3348 27.1066 17.0757 26.5137 18.1138 25.8963L18.2306 22.554L14.8465 22.436C13.623 22.3933 12.6694 21.3405 12.7124 20.1132C12.7562 18.8599 13.7801 17.9021 15.0036 17.9448L20.6525 18.1418C21.876 18.1844 22.8296 19.2373 22.7866 20.4645L22.5519 27.1752C22.5309 27.7758 22.2756 28.3682 21.8185 28.7705C20.2836 30.181 16.9442 31.7639 12.649 31.6142Z" fill="white"/>
</g>
<defs>
<clipPath id="clip0_2_55">
<rect width="165" height="40" fill="white" transform="matrix(0.999393 0.0348477 -0.0349514 0.999389 1.99998 0)"/>
</clipPath>
</defs>
</svg>
