<svg width="276" height="50" viewBox="0 0 276 50" fill="none" xmlns="http://www.w3.org/2000/svg">
<g clip-path="url(#clip0_2_49)">
<path fill-rule="evenodd" clip-rule="evenodd" d="M6.63633 14.8142C7.22845 13.3673 8.01236 12.2432 8.98844 11.4306C9.11436 11.3786 9.25037 11.3607 9.38637 11.3429C9.52198 11.3363 9.84915 11.3365 10.3787 11.3549C10.6717 11.3651 10.9188 11.3963 11.143 11.438C11.3668 11.491 11.5894 11.5777 11.8221 11.6987C12.0544 11.831 12.3305 11.9987 12.6385 12.2239L8.50389 15.2857L9.42398 16.0741L9.05096 26.74C8.04292 26.2082 7.21455 25.3778 6.68585 24.366C5.9448 22.9743 5.6147 21.1227 5.69474 18.8339C5.72685 17.5933 6.0446 16.2498 6.63633 14.8142ZM6.40762 10.7085C6.64425 10.7167 6.9469 10.7724 7.31599 10.8643C7.68507 10.9562 8.02035 11.0469 8.33309 11.1368C6.09026 12.0407 4.32114 13.5933 3.03621 15.8175C1.9185 17.7766 1.29995 19.9789 1.23196 22.2455C1.13063 25.1431 2.04673 27.6585 3.99154 29.7922C5.93635 31.9258 8.3565 33.0487 11.2411 33.1493C14.0243 33.2463 16.428 32.2577 18.4181 30.1936C20.4082 28.1295 21.4652 25.649 21.5665 22.7513C21.2861 23.3511 20.9641 23.8479 20.6231 24.2424C20.1888 24.724 19.6994 25.1697 19.1782 25.5579C18.772 25.8824 18.4023 26.1292 18.0809 26.2873C17.7595 26.4454 17.3471 26.6229 16.8326 26.8195L17.3302 12.5907C17.9703 12.3534 18.4868 12.1005 18.8798 11.832C19.2723 11.5747 19.7035 11.1834 20.1727 10.6692C21.3783 9.42431 22.071 8.00353 22.2614 6.42978C21.397 6.95277 20.6279 7.33234 19.9423 7.57936C19.2572 7.81511 18.4959 7.96918 17.6593 8.01903C17.5241 8.01431 17.3434 8.0193 17.106 8.0336C16.182 8.00138 14.8199 7.59266 13.0198 6.80742C11.2196 6.02218 9.7899 5.6111 8.73071 5.57416C6.64613 5.50148 4.94416 6.42423 3.61433 8.31949C2.4268 10.0165 1.77998 12.0598 1.69599 14.4613C1.87937 13.7339 2.28693 13.0483 2.91867 12.4043C3.38673 11.9239 3.92005 11.5135 4.50654 11.1953C5.08256 10.8542 5.72027 10.6845 6.40762 10.7085ZM24.8599 33.421L28.4307 29.7074L26.759 27.8316L27.1182 17.5603L28.133 16.9297L30.8203 19.123L30.3464 32.6753C30.3196 33.442 30.2516 34.0944 30.1425 34.6324C30.0459 35.137 29.8149 35.6144 29.4852 36.0093L28.4739 37.1819C28.0156 37.7078 27.4597 38.1173 26.7951 38.4102C28.1182 38.3209 29.2102 38.0655 30.0602 37.6323C30.9215 37.1995 31.8147 36.4969 32.7396 35.5357C33.4192 34.8144 33.9406 34.0988 34.293 33.3774C34.6574 32.6337 34.8995 31.8407 35.0293 31.0324L35.5605 15.8453L34.3746 15.883L30.7545 13.262L27.9955 15.3783L27.1444 14.8745L27.407 7.36553L26.6778 5.63553L23.0419 8.95176L22.3609 28.4233L21.2463 29.6488L24.8599 33.421ZM36.7743 29.5242L42.9887 33.7709L49.2507 27.6225L45.8901 29.842L41.9684 26.8154L42.0623 24.132L49.4393 19.0046L45.0802 12.6778L37.6003 17.5194L37.2107 28.6589L36.7743 29.5242ZM58.5966 10.3947L58.3383 17.7797C57.8068 17.8176 57.3754 17.8929 57.0439 18.0168C56.7124 18.1407 56.3552 18.354 55.9723 18.6567C54.8844 19.4428 54.3294 20.4733 54.2844 21.7586C54.2589 22.1641 54.3015 22.5607 54.4008 22.948C54.7836 22.6453 55.1517 22.4436 55.5046 22.3543C55.8687 22.2654 56.3101 22.2244 56.8397 22.2428C57.0989 22.2519 57.3118 22.2932 57.468 22.3438C57.6237 22.4056 57.8568 22.5154 58.1668 22.6842L57.9129 29.9452L63.1745 35.6262L68.367 30.7048L74.2284 36.0116L83.3272 27.7834L83.8383 13.1713L78.5308 8.79822L74.3812 12.2884L69.0207 8.46661L63.9868 12.4001L64.0708 9.99858C64.0984 9.20934 63.5662 8.29899 62.4632 7.25585C62.1334 7.00729 61.8153 6.74785 61.5198 6.4892C61.2242 6.23055 61.0565 5.86347 61.0276 5.39963C60.9956 5.02599 60.9861 4.65314 60.9882 4.2694C61.0193 3.37869 61.3488 2.66771 61.9754 2.17029C61.7516 2.11733 61.5271 2.08693 61.3021 2.06779C60.119 2.02654 59.0537 2.48609 58.1179 3.43556C57.1705 4.39592 56.6816 5.47386 56.639 6.69154C56.6327 6.87193 56.6461 7.13204 56.6914 7.4497C56.8718 8.74288 57.5031 9.72442 58.5966 10.3947ZM84.2618 31.3832L89.0319 34.9925L92.6988 31.7564L96.8206 34.869L100.586 31.0832L99.3237 31.0392L97.7707 29.3143L98.1753 17.7464L97.3021 17.874L93.3208 14.2922L85.3582 19.3879L84.962 30.719L84.2618 31.3832ZM108.393 15.5853C107.906 15.3313 107.443 15.0104 107.027 14.6459L100.434 18.9653L100.166 26.6322L100.747 27.1265L104.578 27.2601L99.3061 35.7346C100.095 35.1074 100.697 34.6881 101.132 34.4888C101.74 34.2165 102.41 34.0931 103.086 34.1167C103.931 34.1461 104.603 34.2712 105.126 34.4813C105.649 34.6915 106.178 35.0598 106.712 35.5865L113.196 30.8343L113.468 23.0547L113.011 22.5647L108.786 22.4173L108.8 22.0227L112.783 15.5578C112.38 15.7808 112.06 15.9051 111.822 15.942C111.437 15.9737 111.053 15.9829 110.67 15.9582L109.836 15.9292C109.329 15.9228 108.837 15.804 108.393 15.5853ZM117.694 36.1048L121.299 32.3586L119.628 30.4828L119.987 20.2115L120.957 19.568L123.688 21.7968L123.216 35.304C123.204 35.9583 123.136 36.6107 123.012 37.2611C122.904 37.7653 122.674 38.2314 122.31 38.6364C122.086 38.8882 121.791 39.2618 121.402 39.7562C120.909 40.2921 120.319 40.7231 119.653 41.0385C120.863 40.9791 121.955 40.7237 122.907 40.2715C123.859 39.8193 124.763 39.1283 125.608 38.2095C126.241 37.5204 126.74 36.7928 127.105 36.0266C127.471 35.2604 127.724 34.4678 127.865 33.6599L128.396 18.4841L127.242 18.568L123.577 15.9455L120.819 18.028L119.968 17.5242L120.229 10.049L119.535 8.28637L115.866 11.6014L115.183 31.1181L114.07 32.2984L117.694 36.1048ZM137.496 13.4281L134.048 10.418L131.053 13.4743L133.955 16.3073L137.496 13.4281ZM131.618 22.1523L131.242 32.8972L130.447 34.0209L131.788 34.0677L134.773 36.7794L138.111 33.9269L142.14 37.4314L145.909 33.5328L144.811 32.0383L145.163 21.9699L146.126 21.5293L148.142 23.8912L147.796 33.7566L151.358 37.0868L155.048 33.1854L153.392 33.1277L152.499 31.55L152.875 20.8051L153.383 19.8295L152.429 19.9994L148.902 16.9866L145.224 20.5384L141.192 17.1128L137.621 20.8264L138.962 20.8732L140.065 22.2549L139.72 32.1204L137.405 32.8299L135.98 31.6288L136.367 20.5682L136.864 19.9082L132.869 16.721L129.387 20.1555L130.523 20.5563L131.618 22.1523ZM202.232 35.0226L201.145 33.5172L201.497 23.4488L202.46 23.0082L204.476 25.3701L204.129 35.2806L207.692 38.5657L211.382 34.6643L209.726 34.6066L208.834 33.0289L209.209 22.2841L209.716 21.3535L208.764 21.4783L205.236 18.4655L201.558 22.0173L197.526 18.5917L193.956 22.3053L195.297 22.3521L196.399 23.7339L196.052 33.6444L194.566 35.489L198.849 38.5282L202.232 35.0226ZM155.805 33.4827C156.334 33.5012 156.805 33.5854 157.24 33.736C157.675 33.8866 158.084 34.1266 158.501 34.4685C158.906 34.81 159.21 35.1367 159.391 35.4478C159.572 35.7589 159.727 36.182 159.844 36.7053L157.7 39.2834L155.423 42.1277C155.987 41.8313 156.467 41.6561 156.863 41.6022C157.26 41.5483 157.836 41.5346 158.602 41.5613C159.49 41.6712 160.248 41.9122 160.868 42.2724C161.487 42.6327 162.043 43.1713 162.549 43.8776C163.827 43.448 165.329 42.4393 167.065 40.8743C168.801 39.298 169.682 37.9853 169.718 36.9368C169.725 36.7564 169.553 36.1747 169.203 35.2255C168.853 34.2538 168.697 33.2324 168.734 32.1951L169.163 19.9056L163.796 16.2754L156.718 20.9279L156.309 32.6198L155.805 33.4827ZM169.9 20.4506L172.188 20.5303L171.708 34.2405L171.119 35.2923L172.459 35.3391L175.267 37.6495L179.122 33.5507L177.499 33.4942L176.469 32.3068L176.866 20.9644L179.299 18.1594L176.967 18.078L177.23 10.5352L172.378 14.7572L172.273 17.7563L169.9 20.4506ZM179.411 34.3059L184.18 37.949L192.919 32.2821L193.325 20.6691L192.45 20.8418L188.459 17.2257L180.496 22.3214L180.099 33.6638L179.411 34.3059ZM220.166 16.1075L220.037 19.783C219.35 19.7591 218.773 19.8067 218.294 19.9367C217.816 20.0668 217.355 20.333 216.901 20.7348C216.447 21.1367 216.182 21.6241 216.084 22.1738C215.986 22.7235 215.915 23.4435 215.884 24.3455C215.871 24.7176 215.851 24.9653 215.812 25.0994C216.419 24.1949 217.244 23.8398 218.264 24.0334C218.948 24.1589 219.478 24.4709 219.856 24.9582L219.642 31.0804C218.414 31.6697 217.326 32.4671 216.4 33.4621C215.355 34.611 214.637 35.8051 214.254 37.0673C214.717 36.7335 215.201 36.4343 215.706 36.1923C216.108 36.0031 216.667 35.8307 217.384 35.6412C217.646 35.5713 217.953 35.4917 218.306 35.4137C218.647 35.3353 219.043 35.304 219.494 35.3197L219.081 47.1244L224.401 43.0767L226.092 44.4L226.327 37.6802L228.509 38.5126L236.149 33.5976L236.757 16.2119L232.114 12.2119L227.08 16.1454L227.156 13.9806L226.237 13.1584L226.115 16.631L225.307 17.156L225.434 13.5255L221.519 10.2959L216.577 14.8309C216.98 14.6079 217.39 14.498 217.807 14.5125C218.145 14.5243 218.481 14.5925 218.793 14.705C219.493 15.0003 219.951 15.4678 220.166 16.1075ZM236.718 36.6992L241.488 40.3085L250.26 34.6428L250.665 23.0636L249.792 23.1911L245.765 19.6077L237.803 24.7034L237.407 36.0346L236.718 36.6992ZM259.965 20.7012C259.466 20.4354 258.981 20.125 258.53 19.7819L251.973 24.0574L251.705 31.7242L252.24 32.217L256.071 32.3506L250.8 40.8251C251.368 40.3708 251.843 40.0374 252.223 39.8023C252.926 39.3753 253.723 39.1773 254.613 39.2084C255.436 39.237 256.097 39.3617 256.62 39.5718C257.142 39.7932 257.671 40.1504 258.206 40.677L264.701 35.9252L264.973 28.1456L264.516 27.6556L260.291 27.5082L260.305 27.1136L264.288 20.6487C263.885 20.8717 263.565 20.996 263.326 21.0328C263.088 21.0697 262.705 21.0676 262.175 21.0491L261.353 21.0205C260.812 21.0016 260.353 20.8953 259.965 20.7012ZM265.221 23.9662L267.508 24.0459L267.029 37.7561L266.439 38.8079L267.78 38.8547L270.542 41.1636L274.442 37.0664L272.82 37.0098L271.789 35.8224L272.186 24.4913L274.574 21.6847L272.287 21.6049L272.55 14.0621L267.721 18.2849L267.616 21.284L265.221 23.9662ZM90.0922 18.2209L93.0884 20.6169L92.7666 29.8172L91.7376 30.8537L89.7052 28.9654L90.0922 18.2209ZM165.957 37.0765C166.572 37.5495 166.868 38.1243 166.844 38.812C166.833 39.1277 166.791 39.3633 166.74 39.5196C166.574 39.7509 166.445 39.9044 166.363 39.9806C166.141 40.1873 165.866 40.3132 165.56 40.3477C165.22 40.3923 164.776 40.2074 164.237 39.8048C163.698 39.4022 162.871 39.1815 161.767 39.143C161.057 39.1182 160.412 39.1635 159.821 39.2784C159.242 39.3936 158.626 39.5979 157.984 39.8916L164.002 32.9784L163.97 33.8916C163.951 34.4215 163.981 34.8515 164.059 35.2042C164.138 35.5456 164.329 35.8909 164.633 36.2176C165.074 36.5039 165.515 36.8015 165.957 37.0765ZM161.446 20.2348L164.366 22.5492L164.054 31.4788L163.153 32.3956L161.098 30.1904L161.446 20.2348ZM42.1021 22.9933L42.304 17.2206L45.0616 20.9517L42.1021 22.9933ZM109.96 18.8347L107.112 23.5216L105.095 23.4513L105.276 18.2762C106.047 18.7998 106.894 19.089 107.818 19.1212C108.551 19.1354 109.265 19.0475 109.96 18.8347ZM185.242 21.1435L188.236 23.5847L187.914 32.7849L186.897 33.8218L184.866 31.8884L185.242 21.1435ZM105.738 26.3523L108.622 26.4529L108.444 31.5491C108.044 31.3884 107.631 31.2611 107.216 31.1676C106.936 31.124 106.373 31.0818 105.506 31.0516C104.999 31.0226 104.501 31.0617 104.001 31.1571C103.581 31.2441 103.068 31.4068 102.485 31.6235L105.738 26.3523ZM225.216 19.7604L226.029 19.1114L225.24 41.661L224.468 41.16L225.216 19.7604ZM226.996 18.5582L229.461 17.0976L231.152 18.4209L230.633 33.2698C229.827 32.7675 229.396 32.5042 229.318 32.4676L228.46 32.1555C227.824 31.9752 227.176 31.7946 226.539 31.6144L226.996 18.5582ZM16.0093 12.9397C16.2685 12.9488 16.4834 12.9337 16.6431 12.8828L16.1403 27.2582C15.1314 27.7197 14.0293 27.9409 12.9138 27.902C12.2603 27.8792 11.5982 27.7771 10.9502 27.5965C10.3022 27.4158 9.79133 27.1835 9.42855 26.9113L14.0818 22.5694L14.4272 12.6927C14.6152 12.8008 14.8157 12.8755 15.0294 12.8943C15.2544 12.9134 15.4004 12.9298 15.4793 12.9325L16.0093 12.9397ZM242.559 23.5373L245.556 25.9333L245.234 35.1335L244.25 36.1716L242.184 34.2821L242.559 23.5373ZM63.9353 13.5497L65.4404 12.4508L68.3751 15.6349L67.8791 29.8186L66.6067 31.0385L63.4381 27.7672L63.9353 13.5497ZM260.476 24.162C260.816 24.1174 261.157 24.039 261.466 23.9143L258.617 28.6013L256.6 28.5309L256.781 23.3558C257.541 23.879 258.433 24.1698 259.357 24.202C259.763 24.2161 260.136 24.1953 260.476 24.162ZM257.254 31.4436L260.138 31.5442L259.96 36.6404C259.56 36.4797 259.147 36.3524 258.732 36.2589C258.452 36.204 257.889 36.1731 257.01 36.1425C256.504 36.1135 255.995 36.1522 255.506 36.248C255.006 36.3661 254.504 36.5179 254.023 36.7156L257.254 31.4436ZM74.3131 13.9116L75.7844 12.8115L78.7529 15.9968L78.2569 30.1804L76.9507 31.3992L73.8272 28.1295L74.3131 13.9116Z" fill="white"/>
</g>
<defs>
<clipPath id="clip0_2_49">
<rect width="274" height="40" fill="white" transform="matrix(0.999393 0.0348477 -0.0349514 0.999389 2 0)"/>
</clipPath>
</defs>
</svg>
